<?xml version="1.0" encoding="UTF-8" standalone="no"?>
<svg
   viewBox="0 0 900 680"
   width="100%"
   height="100%"
   version="1.1"
   id="svg70"
   sodipodi:docname="cropped-logo-colored.svg"
   inkscape:version="1.4.4 (dcaf3e7d9e, 2026-05-05)"
   inkscape:export-filename="../code/faststream/docs/_static/logo.png"
   inkscape:export-xdpi="96"
   inkscape:export-ydpi="96"
   xmlns:inkscape="http://www.inkscape.org/namespaces/inkscape"
   xmlns:sodipodi="http://sodipodi.sourceforge.net/DTD/sodipodi-0.dtd"
   xmlns:xlink="http://www.w3.org/1999/xlink"
   xmlns="http://www.w3.org/2000/svg"
   xmlns:svg="http://www.w3.org/2000/svg">
  <sodipodi:namedview
     id="namedview70"
     pagecolor="#ffffff"
     bordercolor="#000000"
     borderopacity="0.25"
     inkscape:showpageshadow="2"
     inkscape:pageopacity="0.0"
     inkscape:pagecheckerboard="0"
     inkscape:deskcolor="#d1d1d1"
     inkscape:zoom="0.6363961"
     inkscape:cx="316.6267"
     inkscape:cy="400.69384"
     inkscape:window-width="1033"
     inkscape:window-height="991"
     inkscape:window-x="26"
     inkscape:window-y="23"
     inkscape:window-maximized="0"
     inkscape:current-layer="svg70" />
  <defs
     id="defs14">
    <!-- Background Gradient -->
    <linearGradient
       id="bgGrad"
       x1="0%"
       y1="0%"
       x2="0%"
       y2="100%">
      <stop
         offset="0%"
         stop-color="var(--sy-c-background, #081019)"
         id="stop1" />
      <stop
         offset="60%"
         stop-color="#04080e"
         id="stop2" />
      <stop
         offset="100%"
         stop-color="#020407"
         id="stop3" />
    </linearGradient>
    <!-- Main Cyan Stream Gradient -->
    <linearGradient
       id="cyanStream"
       x1="0%"
       y1="100%"
       x2="100%"
       y2="0%">
      <stop
         offset="0%"
         stop-color="#00416a"
         id="stop4" />
      <stop
         offset="30%"
         stop-color="#00b4db"
         id="stop5" />
      <stop
         offset="70%"
         stop-color="#00f2fe"
         id="stop6" />
      <stop
         offset="100%"
         stop-color="#a8f5ff"
         id="stop7" />
    </linearGradient>
    <!-- Secondary Teal Stream Gradient -->
    <linearGradient
       id="tealStream"
       x1="0%"
       y1="100%"
       x2="100%"
       y2="0%">
      <stop
         offset="0%"
         stop-color="#021B29"
         id="stop8" />
      <stop
         offset="50%"
         stop-color="#0083b0"
         id="stop9" />
      <stop
         offset="100%"
         stop-color="#80e5ff"
         id="stop10" />
    </linearGradient>
    <!-- Bright Core Gradient -->
    <linearGradient
       id="coreGlow"
       x1="-278.27594"
       y1="1047.8807"
       x2="1391.3797"
       y2="-621.77491"
       gradientTransform="scale(0.80854995,1.236782)"
       gradientUnits="userSpaceOnUse">
      <stop
         offset="0%"
         stop-color="#00f2fe"
         id="stop11" />
      <stop
         offset="50%"
         stop-color="#ffffff"
         id="stop12" />
      <stop
         offset="100%"
         stop-color="#70e1ff"
         id="stop13" />
    </linearGradient>
    <!-- Filters -->
    <filter
       id="heavyGlow"
       x="-0.72"
       y="-1.8"
       width="2.44"
       height="4.6">
      <feGaussianBlur
         stdDeviation="12"
         result="blur"
         id="feGaussianBlur13" />
      <feComposite
         in="SourceGraphic"
         in2="blur"
         operator="over"
         id="feComposite13" />
    </filter>
    <filter
       id="softGlow"
       x="-2"
       y="-2"
       width="5"
       height="5">
      <feGaussianBlur
         stdDeviation="5"
         result="blur"
         id="feGaussianBlur14" />
      <feComposite
         in="SourceGraphic"
         in2="blur"
         operator="over"
         id="feComposite14" />
    </filter>
    <linearGradient
       inkscape:collect="always"
       xlink:href="#cyanStream"
       id="linearGradient70"
       x1="12.73541"
       y1="6614.3089"
       x2="47.824582"
       y2="6579.2198"
       gradientTransform="scale(14.035669,0.07124705)"
       gradientUnits="userSpaceOnUse" />
    <linearGradient
       inkscape:collect="always"
       xlink:href="#tealStream"
       id="linearGradient71"
       x1="257.61249"
       y1="381.24685"
       x2="611.39679"
       y2="27.462548"
       gradientTransform="scale(0.81053585,1.2337517)"
       gradientUnits="userSpaceOnUse" />
    <linearGradient
       inkscape:collect="always"
       xlink:href="#cyanStream"
       id="linearGradient72"
       x1="281.85162"
       y1="381.81792"
       x2="632.92996"
       y2="30.739578"
       gradientTransform="scale(0.80893626,1.2361913)"
       gradientUnits="userSpaceOnUse" />
    <linearGradient
       inkscape:collect="always"
       xlink:href="#cyanStream"
       id="linearGradient74"
       x1="356.61059"
       y1="386.79165"
       x2="703.41745"
       y2="39.984791"
       gradientTransform="scale(0.81601615,1.2254659)"
       gradientUnits="userSpaceOnUse" />
    <linearGradient
       inkscape:collect="always"
       xlink:href="#cyanStream"
       id="linearGradient75"
       x1="442.89242"
       y1="381.13714"
       x2="772.1112"
       y2="51.918364"
       gradientTransform="scale(0.80493587,1.242335)"
       gradientUnits="userSpaceOnUse" />
    <linearGradient
       inkscape:collect="always"
       xlink:href="#tealStream"
       id="linearGradient76"
       x1="486.6289"
       y1="376.24924"
       x2="804.35047"
       y2="58.527659"
       gradientTransform="scale(0.79629468,1.2558165)"
       gradientUnits="userSpaceOnUse" />
    <linearGradient
       inkscape:collect="always"
       xlink:href="#cyanStream"
       id="linearGradient77"
       x1="548.69384"
       y1="368.14348"
       x2="851.32026"
       y2="65.51706"
       gradientTransform="scale(0.779965,1.2821088)"
       gradientUnits="userSpaceOnUse" />
    <linearGradient
       inkscape:collect="always"
       xlink:href="#cyanStream"
       id="linearGradient74-3"
       x1="356.6106"
       y1="386.79166"
       x2="703.41748"
       y2="39.984791"
       gradientTransform="matrix(0.82516128,0,0,1.2253352,-30.139468,-1.9410705)"
       gradientUnits="userSpaceOnUse" />
    <filter
       style="color-interpolation-filters:sRGB;"
       inkscape:label="Color Shift"
       id="filter82"
       x="-0.60114071"
       y="-0.13537117"
       width="2.1338404"
       height="1.1982533">
      <feColorMatrix
         type="hueRotate"
         values="277"
         result="color1"
         id="feColorMatrix81" />
      <feColorMatrix
         type="saturate"
         values="1"
         result="color2"
         id="feColorMatrix82" />
    </filter>
  </defs>
  <!-- Background -->
  <rect
     width="900"
     height="680"
     fill="url(#bgGrad)"
     rx="16"
     id="rect14" />
  <g
     transform="matrix(1.3634799,0,0,1.3521586,-149.5247,-4.9028266)"
     id="g69"
     style="filter:url(#filter82)">
    <!-- Base Horizon Glow Line -->
    <line
       x1="180"
       y1="470"
       x2="670"
       y2="470"
       stroke="url(#cyanStream)"
       stroke-width="2.5"
       stroke-linecap="round"
       opacity="0.85"
       id="line14"
       style="stroke:url(#linearGradient70)" />
    <!-- ================= DENSE STREAM LINES ================= -->
    <!-- Ambient Backdrop Flow Lines -->
    <!-- Outer & Secondary Stream Lines (18+ Curved Lines) -->
    <path
       d="M 210,470 C 245,355 385,315 370,205 355,105 435,65 495,35"
       fill="none"
       stroke="url(#tealStream)"
       stroke-width="2.5"
       opacity="0.6"
       id="path16"
       style="stroke:url(#linearGradient71)" />
    <path
       d="M 230,470 C 260,360 395,320 380,210 365,110 450,70 510,40"
       fill="none"
       stroke="url(#cyanStream)"
       stroke-width="4"
       stroke-linecap="round"
       opacity="0.75"
       id="path17"
       style="stroke:url(#linearGradient72)" />
    <path
       d="M 245,470 C 275,365 405,325 390,212 375,112 460,72 525,43"
       fill="none"
       stroke="#00f2fe"
       stroke-width="1.5"
       opacity="0.8"
       id="path18" />
    <path
       d="M 280,470 C 300,375 425,330 410,218 395,118 480,78 555,50"
       fill="none"
       stroke="#a8f5ff"
       stroke-width="2"
       opacity="0.9"
       id="path20" />
    <path
       d="M 275.36409,465.24774 C 295.36293,367.75471 420.35568,321.5738 405.35655,206.63464 390.35742,104.0104 475.35249,62.960701 550.34814,34.22591"
       fill="none"
       stroke="#a8f5ff"
       stroke-width="2.02601"
       opacity="0.9"
       id="path20-5" />
    <path
       d="M 295,470 C 315,378 435,332 420,220 405,120 490,80 570,53"
       fill="none"
       stroke="url(#cyanStream)"
       stroke-width="8"
       stroke-linecap="round"
       id="path21"
       style="stroke:url(#linearGradient74)" />
    <path
       d="M 268.16663,468.00882 C 288.39076,376.01863 409.73561,330.02353 394.56751,218.03548 379.3994,118.04613 465.352,78.050399 546.24857,51.053279"
       fill="none"
       stroke="url(#cyanStream)"
       stroke-width="8.04427"
       stroke-linecap="round"
       id="path21-2"
       style="stroke:url(#linearGradient74-3)" />
    <!-- Central Core High-Density Lines -->
    <path
       d="M 345,470 C 358,385 462,340 448,227 434,127 518,87 608,64"
       fill="none"
       stroke="#00f2fe"
       stroke-width="2.5"
       opacity="0.95"
       id="path24" />
    <path
       d="m 331.61174,466.42457 c 13,-85 117,-130 103,-243 -14,-100 70,-139.999997 160,-162.999994"
       fill="none"
       stroke="#00f2fe"
       stroke-width="2.5"
       opacity="0.95"
       id="path24-6" />
    <path
       d="M 360,470 C 370,388 470,342 456,230 442,130 526,90 618,68"
       fill="none"
       stroke="url(#cyanStream)"
       stroke-width="7"
       stroke-linecap="round"
       id="path25"
       style="stroke:url(#linearGradient75)" />
    <path
       d="M 375,470 C 382,390 478,345 464,232 450,132 534,92 628,72"
       fill="none"
       stroke="#80e5ff"
       stroke-width="2"
       opacity="0.85"
       id="path26" />
    <path
       d="M 390,470 C 395,392 486,348 472,235 458,135 542,95 638,76"
       fill="none"
       stroke="url(#tealStream)"
       stroke-width="5"
       stroke-linecap="round"
       id="path27"
       style="stroke:url(#linearGradient76)" />
    <!-- Outer Right Extension Lines -->
    <path
       d="M 410,470 C 412,395 496,352 482,238 468,138 552,98 650,81"
       fill="none"
       stroke="#00f2fe"
       stroke-width="3"
       stroke-linecap="round"
       opacity="0.75"
       id="path28" />
    <path
       d="M 430,470 C 428,398 506,355 492,240 478,140 562,102 662,86"
       fill="none"
       stroke="url(#cyanStream)"
       stroke-width="4"
       stroke-linecap="round"
       opacity="0.65"
       id="path29"
       style="stroke:url(#linearGradient77)" />
    <path
       d="M 450,470 C 445,400 516,358 502,243 488,143 572,106 674,92"
       fill="none"
       stroke="#0083b0"
       stroke-width="2"
       opacity="0.5"
       id="path30" />
    <path
       d="M 470,470 C 460,405 526,362 512,246 498,146 582,110 685,98"
       fill="none"
       stroke="#00f2fe"
       stroke-width="1.5"
       stroke-dasharray="6, 4"
       opacity="0.6"
       id="path31" />
    <!-- ================= NUMEROUS BEAM-UP STARS ================= -->
    <!-- Large Focal Stars -->
    <path
       d="m 600,30 q 0,20 20,20 -20,0 -20,20 0,-20 -20,-20 20,0 20,-20 z"
       fill="#ffffff"
       filter="url(#heavyGlow)"
       id="path32" />
    <path
       d="m 640,65 q 0,15 15,15 -15,0 -15,15 0,-15 -15,-15 15,0 15,-15 z"
       fill="#00f2fe"
       filter="url(#softGlow)"
       id="path33" />
    <path
       d="m 520,20 q 0,12 12,12 -12,0 -12,12 0,-12 -12,-12 12,0 12,-12 z"
       fill="#ffffff"
       filter="url(#softGlow)"
       id="path34" />
    <path
       d="m 460,85 q 0,13 13,13 -13,0 -13,13 0,-13 -13,-13 13,0 13,-13 z"
       fill="#80e5ff"
       filter="url(#softGlow)"
       id="path35" />
    <!-- Medium Sparkle Stars -->
    <path
       d="m 675,80 q 0,10 10,10 -10,0 -10,10 0,-10 -10,-10 10,0 10,-10 z"
       fill="#ffffff"
       id="path36" />
    <path
       d="m 555,75 q 0,9 9,9 -9,0 -9,9 0,-9 -9,-9 9,0 9,-9 z"
       fill="#00f2fe"
       id="path37" />
    <path
       d="m 490,50 q 0,7 7,7 -7,0 -7,7 0,-7 -7,-7 7,0 7,-7 z"
       fill="#ffffff"
       id="path38" />
    <path
       d="m 410,130 q 0,8 8,8 -8,0 -8,8 0,-8 -8,-8 8,0 8,-8 z"
       fill="#70e1ff"
       id="path39" />
    <path
       d="m 370,180 q 0,7 7,7 -7,0 -7,7 0,-7 -7,-7 7,0 7,-7 z"
       fill="#ffffff"
       id="path40" />
    <path
       d="m 580,120 q 0,7 7,7 -7,0 -7,7 0,-7 -7,-7 7,0 7,-7 z"
       fill="#00f2fe"
       id="path41" />
    <path
       d="m 625,115 q 0,6 6,6 -6,0 -6,6 0,-6 -6,-6 6,0 6,-6 z"
       fill="#a8f5ff"
       id="path42" />
    <path
       d="m 700,110 q 0,6 6,6 -6,0 -6,6 0,-6 -6,-6 6,0 6,-6 z"
       fill="#ffffff"
       id="path43" />
    <!-- Small & Micro Ambient Stars -->
    <path
       d="m 440,40 q 0,4 4,4 -4,0 -4,4 0,-4 -4,-4 4,0 4,-4 z"
       fill="#80e5ff"
       id="path44" />
    <path
       d="m 470,150 q 0,4 4,4 -4,0 -4,4 0,-4 -4,-4 4,0 4,-4 z"
       fill="#ffffff"
       id="path45" />
    <path
       d="m 535,140 q 0,4 4,4 -4,0 -4,4 0,-4 -4,-4 4,0 4,-4 z"
       fill="#00f2fe"
       id="path46" />
    <path
       d="m 320,280 q 0,4 4,4 -4,0 -4,4 0,-4 -4,-4 4,0 4,-4 z"
       fill="#ffffff"
       opacity="0.8"
       id="path47" />
    <path
       d="m 280,340 q 0,4 4,4 -4,0 -4,4 0,-4 -4,-4 4,0 4,-4 z"
       fill="#00f2fe"
       opacity="0.8"
       id="path48" />
    <path
       d="m 650,145 q 0,4 4,4 -4,0 -4,4 0,-4 -4,-4 4,0 4,-4 z"
       fill="#ffffff"
       id="path49" />
    <path
       d="m 510,100 q 0,4 4,4 -4,0 -4,4 0,-4 -4,-4 4,0 4,-4 z"
       fill="#80e5ff"
       id="path50" />
    <!-- ================= TRANSPORTER DUST & PARTICLES ================= -->
    <circle
       cx="615"
       cy="40"
       r="3"
       fill="#ffffff"
       filter="url(#softGlow)"
       id="circle50" />
    <circle
       cx="575"
       cy="55"
       r="2"
       fill="#00f2fe"
       id="circle51" />
    <circle
       cx="630"
       cy="95"
       r="2.5"
       fill="#ffffff"
       id="circle52" />
    <circle
       cx="660"
       cy="70"
       r="1.5"
       fill="#a8f5ff"
       id="circle53" />
    <ellipse
       cx="425"
       cy="470"
       rx="230"
       ry="8"
       fill="#00f2fe"
       opacity="0.35"
       filter="url(#heavyGlow)"
       id="ellipse14" />
    <circle
       cx="545"
       cy="35"
       r="2"
       fill="#ffffff"
       id="circle54" />
    <circle
       cx="495"
       cy="75"
       r="1.5"
       fill="#00f2fe"
       id="circle55" />
    <circle
       cx="435"
       cy="115"
       r="2.5"
       fill="#ffffff"
       id="circle56" />
    <circle
       cx="475"
       cy="125"
       r="1.5"
       fill="#70e1ff"
       id="circle57" />
    <circle
       cx="515"
       cy="165"
       r="2"
       fill="#ffffff"
       id="circle58" />
    <circle
       cx="560"
       cy="150"
       r="1.5"
       fill="#00f2fe"
       id="circle59" />
    <circle
       cx="395"
       cy="200"
       r="2"
       fill="#80e5ff"
       id="circle60" />
    <circle
       cx="425"
       cy="210"
       r="1.5"
       fill="#ffffff"
       id="circle61" />
    <circle
       cx="355"
       cy="260"
       r="2.5"
       fill="#00f2fe"
       id="circle62" />
    <circle
       cx="375"
       cy="275"
       r="1"
       fill="#ffffff"
       id="circle63" />
    <circle
       cx="310"
       cy="320"
       r="2"
       fill="#a8f5ff"
       id="circle64" />
    <circle
       cx="335"
       cy="335"
       r="1.5"
       fill="#ffffff"
       id="circle65" />
    <circle
       cx="270"
       cy="390"
       r="2"
       fill="#00f2fe"
       id="circle66" />
    <circle
       cx="290"
       cy="405"
       r="1.5"
       fill="#ffffff"
       id="circle67" />
    <circle
       cx="235"
       cy="430"
       r="2.5"
       fill="#80e5ff"
       id="circle68" />
    <circle
       cx="250"
       cy="445"
       r="1"
       fill="#ffffff"
       id="circle69" />
  </g>
  <!-- ================= TYPOGRAPHY ================= -->
</svg>
